<mxfile host="app.diagrams.net" agent="Mozilla/5.0 (Macintosh; Intel Mac OS X 10_15_7) AppleWebKit/537.36 (KHTML, like Gecko) Chrome/134.0.0.0 Safari/537.36" version="26.1.0">
  <diagram name="Seite-1" id="NWWnlM1j_Vvz42IHq0mf">
    <mxGraphModel dx="1530" dy="2040" grid="1" gridSize="10" guides="1" tooltips="1" connect="1" arrows="1" fold="1" page="1" pageScale="1" pageWidth="827" pageHeight="1169" math="0" shadow="0">
      <root>
        <mxCell id="0" />
        <mxCell id="1" parent="0" />
        <mxCell id="B019YZBu6rQDzwluSdwq-3" value="" style="edgeStyle=orthogonalEdgeStyle;rounded=0;orthogonalLoop=1;jettySize=auto;html=1;" edge="1" parent="1" source="B019YZBu6rQDzwluSdwq-1" target="B019YZBu6rQDzwluSdwq-2">
          <mxGeometry relative="1" as="geometry" />
        </mxCell>
        <mxCell id="B019YZBu6rQDzwluSdwq-5" value="" style="edgeStyle=orthogonalEdgeStyle;rounded=0;orthogonalLoop=1;jettySize=auto;html=1;" edge="1" parent="1" source="B019YZBu6rQDzwluSdwq-1" target="B019YZBu6rQDzwluSdwq-4">
          <mxGeometry relative="1" as="geometry" />
        </mxCell>
        <mxCell id="B019YZBu6rQDzwluSdwq-13" value="" style="edgeStyle=orthogonalEdgeStyle;rounded=0;orthogonalLoop=1;jettySize=auto;html=1;" edge="1" parent="1" source="B019YZBu6rQDzwluSdwq-1" target="B019YZBu6rQDzwluSdwq-12">
          <mxGeometry relative="1" as="geometry" />
        </mxCell>
        <mxCell id="B019YZBu6rQDzwluSdwq-15" value="" style="edgeStyle=orthogonalEdgeStyle;rounded=0;orthogonalLoop=1;jettySize=auto;html=1;" edge="1" parent="1" source="B019YZBu6rQDzwluSdwq-1" target="B019YZBu6rQDzwluSdwq-14">
          <mxGeometry relative="1" as="geometry" />
        </mxCell>
        <mxCell id="B019YZBu6rQDzwluSdwq-16" style="edgeStyle=orthogonalEdgeStyle;rounded=0;orthogonalLoop=1;jettySize=auto;html=1;exitX=1;exitY=1;exitDx=0;exitDy=0;" edge="1" parent="1" source="B019YZBu6rQDzwluSdwq-1">
          <mxGeometry relative="1" as="geometry">
            <mxPoint x="620" y="580" as="targetPoint" />
          </mxGeometry>
        </mxCell>
        <mxCell id="B019YZBu6rQDzwluSdwq-18" style="edgeStyle=orthogonalEdgeStyle;rounded=0;orthogonalLoop=1;jettySize=auto;html=1;exitX=0;exitY=1;exitDx=0;exitDy=0;" edge="1" parent="1" source="B019YZBu6rQDzwluSdwq-1">
          <mxGeometry relative="1" as="geometry">
            <mxPoint x="180" y="590" as="targetPoint" />
          </mxGeometry>
        </mxCell>
        <mxCell id="B019YZBu6rQDzwluSdwq-20" style="edgeStyle=orthogonalEdgeStyle;rounded=0;orthogonalLoop=1;jettySize=auto;html=1;exitX=0;exitY=0;exitDx=0;exitDy=0;" edge="1" parent="1" source="B019YZBu6rQDzwluSdwq-1">
          <mxGeometry relative="1" as="geometry">
            <mxPoint x="280" y="220" as="targetPoint" />
            <Array as="points">
              <mxPoint x="279" y="293" />
              <mxPoint x="279" y="250" />
              <mxPoint x="310" y="250" />
              <mxPoint x="310" y="260" />
            </Array>
          </mxGeometry>
        </mxCell>
        <mxCell id="B019YZBu6rQDzwluSdwq-23" style="edgeStyle=orthogonalEdgeStyle;rounded=0;orthogonalLoop=1;jettySize=auto;html=1;exitX=1;exitY=0;exitDx=0;exitDy=0;" edge="1" parent="1" source="B019YZBu6rQDzwluSdwq-1">
          <mxGeometry relative="1" as="geometry">
            <mxPoint x="550" y="220" as="targetPoint" />
          </mxGeometry>
        </mxCell>
        <mxCell id="B019YZBu6rQDzwluSdwq-1" value="Spanisch Trainer Projekt SWP Web" style="ellipse;whiteSpace=wrap;html=1;" vertex="1" parent="1">
          <mxGeometry x="299" y="270" width="230" height="160" as="geometry" />
        </mxCell>
        <mxCell id="B019YZBu6rQDzwluSdwq-2" value="KI Modell als Trainer (ChatGPT,...)" style="whiteSpace=wrap;html=1;" vertex="1" parent="1">
          <mxGeometry x="44" y="320" width="120" height="60" as="geometry" />
        </mxCell>
        <mxCell id="B019YZBu6rQDzwluSdwq-7" value="" style="edgeStyle=orthogonalEdgeStyle;rounded=0;orthogonalLoop=1;jettySize=auto;html=1;" edge="1" parent="1" source="B019YZBu6rQDzwluSdwq-4" target="B019YZBu6rQDzwluSdwq-6">
          <mxGeometry relative="1" as="geometry" />
        </mxCell>
        <mxCell id="B019YZBu6rQDzwluSdwq-9" value="" style="edgeStyle=orthogonalEdgeStyle;rounded=0;orthogonalLoop=1;jettySize=auto;html=1;" edge="1" parent="1" source="B019YZBu6rQDzwluSdwq-4" target="B019YZBu6rQDzwluSdwq-8">
          <mxGeometry relative="1" as="geometry" />
        </mxCell>
        <mxCell id="B019YZBu6rQDzwluSdwq-11" value="" style="edgeStyle=orthogonalEdgeStyle;rounded=0;orthogonalLoop=1;jettySize=auto;html=1;" edge="1" parent="1" source="B019YZBu6rQDzwluSdwq-4" target="B019YZBu6rQDzwluSdwq-10">
          <mxGeometry relative="1" as="geometry" />
        </mxCell>
        <mxCell id="B019YZBu6rQDzwluSdwq-4" value="mehrere Arten zu trainieren" style="ellipse;shape=cloud;whiteSpace=wrap;html=1;" vertex="1" parent="1">
          <mxGeometry x="354" y="70" width="120" height="80" as="geometry" />
        </mxCell>
        <mxCell id="B019YZBu6rQDzwluSdwq-6" value="per Sprachchat" style="rhombus;whiteSpace=wrap;html=1;" vertex="1" parent="1">
          <mxGeometry x="174" y="70" width="80" height="80" as="geometry" />
        </mxCell>
        <mxCell id="B019YZBu6rQDzwluSdwq-8" value="wie Quizlet per Karteikarten und Tests" style="rhombus;whiteSpace=wrap;html=1;" vertex="1" parent="1">
          <mxGeometry x="374" y="-90" width="80" height="80" as="geometry" />
        </mxCell>
        <mxCell id="B019YZBu6rQDzwluSdwq-10" value="als Game (eine Art von Videolernspiel)" style="rhombus;whiteSpace=wrap;html=1;" vertex="1" parent="1">
          <mxGeometry x="574" y="70" width="80" height="80" as="geometry" />
        </mxCell>
        <mxCell id="B019YZBu6rQDzwluSdwq-12" value="schön designte UI und perfekte DB Struktur plus wichtige Alogrithmen und schnelle Laufzeit im Browser" style="whiteSpace=wrap;html=1;" vertex="1" parent="1">
          <mxGeometry x="664" y="320" width="120" height="60" as="geometry" />
        </mxCell>
        <mxCell id="B019YZBu6rQDzwluSdwq-14" value="wie lernt man am besten? mit Humor, Verständnis, Beispiele und genau Übersetzungen)" style="whiteSpace=wrap;html=1;" vertex="1" parent="1">
          <mxGeometry x="354" y="560" width="120" height="60" as="geometry" />
        </mxCell>
        <mxCell id="B019YZBu6rQDzwluSdwq-17" value="maybe Online System als Ranking des Fortschritts für Rewards" style="whiteSpace=wrap;html=1;" vertex="1" parent="1">
          <mxGeometry x="560" y="580" width="120" height="60" as="geometry" />
        </mxCell>
        <mxCell id="B019YZBu6rQDzwluSdwq-19" value="User Dashboard das angibt wie viel man schon gelernt hat und das Sprachlevel wird auf lustige Weise beschrieben" style="whiteSpace=wrap;html=1;" vertex="1" parent="1">
          <mxGeometry x="120" y="600" width="120" height="60" as="geometry" />
        </mxCell>
        <mxCell id="B019YZBu6rQDzwluSdwq-26" value="" style="edgeStyle=orthogonalEdgeStyle;rounded=0;orthogonalLoop=1;jettySize=auto;html=1;" edge="1" parent="1" source="B019YZBu6rQDzwluSdwq-22" target="B019YZBu6rQDzwluSdwq-25">
          <mxGeometry relative="1" as="geometry" />
        </mxCell>
        <mxCell id="B019YZBu6rQDzwluSdwq-22" value="wichtig dass die App schnell im Browser läuft und alles flüssig wirkt" style="whiteSpace=wrap;html=1;" vertex="1" parent="1">
          <mxGeometry x="220" y="160" width="120" height="60" as="geometry" />
        </mxCell>
        <mxCell id="B019YZBu6rQDzwluSdwq-24" value="wir brauchen ein gutes KI Modell und eventuell mehrere APIs für diese App" style="whiteSpace=wrap;html=1;" vertex="1" parent="1">
          <mxGeometry x="490" y="150" width="120" height="60" as="geometry" />
        </mxCell>
        <mxCell id="B019YZBu6rQDzwluSdwq-25" value="wir müssen nicht ALLES selber machen es git viele gute Tools für gewisse Sachen die wir einbauen können" style="ellipse;whiteSpace=wrap;html=1;" vertex="1" parent="1">
          <mxGeometry x="40" y="150" width="80" height="80" as="geometry" />
        </mxCell>
      </root>
    </mxGraphModel>
  </diagram>
</mxfile>
